HIERARCHY
ROOT Hips
{
	OFFSET -14.64140 90.27770 -84.91600
	CHANNELS 6 Xposition Yposition Zposition Zrotation Xrotation Yrotation
	JOINT Spine
	{
		OFFSET 0.00000 13.20850 -1.60436
		CHANNELS 3 Zrotation Xrotation Yrotation
		JOINT Spine1
		{
			OFFSET 0.00000 8.61716 0.00000
			CHANNELS 3 Zrotation Xrotation Yrotation
			JOINT Spine2
			{
				OFFSET 0.00000 8.61717 0.00000
				CHANNELS 3 Zrotation Xrotation Yrotation
				JOINT Spine3
				{
					OFFSET 0.00000 8.61717 0.00000
					CHANNELS 3 Zrotation Xrotation Yrotation
					JOINT Neck
					{
						OFFSET 0.00000 11.07920 1.10792
						CHANNELS 3 Zrotation Xrotation Yrotation
						JOINT Neck1
						{
							OFFSET 0.00000 7.08032 0.00000
							CHANNELS 3 Zrotation Xrotation Yrotation
							JOINT Head
							{
								OFFSET 0.00000 7.08031 0.00000
								CHANNELS 3 Zrotation Xrotation Yrotation
								End site
								{
									OFFSET 0.00000 0.00000 0.00000
								}
							}
						}
					}
					JOINT RightShoulder
					{
						OFFSET -0.01000 7.91373 5.19711
						CHANNELS 3 Zrotation Xrotation Yrotation
						JOINT RightArm
						{
							OFFSET -18.41580 0.00000 0.00000
							CHANNELS 3 Zrotation Xrotation Yrotation
							JOINT RightForeArm
							{
								OFFSET -29.11090 0.00000 0.00000
								CHANNELS 3 Zrotation Xrotation Yrotation
								JOINT RightHand
								{
									OFFSET -24.65040 0.00000 0.00000
									CHANNELS 3 Zrotation Xrotation Yrotation
									JOINT RightHandThumb1
									{
										OFFSET -5.35114 -0.85590 3.97906
										CHANNELS 3 Zrotation Xrotation Yrotation
										JOINT RightHandThumb2
										{
											OFFSET -4.52789 0.00000 0.00000
											CHANNELS 3 Zrotation Xrotation Yrotation
											JOINT RightHandThumb3
											{
												OFFSET -2.46976 0.00000 0.00000
												CHANNELS 3 Zrotation Xrotation Yrotation
												End site
												{
													OFFSET 0.00000 0.00000 0.00000
												}
											}
										}
									}
									JOINT RightHandIndex1
									{
										OFFSET -14.26970 0.00000 2.88139
										CHANNELS 3 Zrotation Xrotation Yrotation
										JOINT RightHandIndex2
										{
											OFFSET -5.48836 0.00000 0.00000
											CHANNELS 3 Zrotation Xrotation Yrotation
											JOINT RightHandIndex3
											{
												OFFSET -3.01859 0.00000 0.00000
												CHANNELS 3 Zrotation Xrotation Yrotation
												End site
												{
													OFFSET 0.00000 0.00000 0.00000
												}
											}
										}
									}
									JOINT RightHandMiddle1
									{
										OFFSET -14.26970 0.00000 -0.09147
										CHANNELS 3 Zrotation Xrotation Yrotation
										JOINT RightHandMiddle2
										{
											OFFSET -6.17441 0.00000 0.00000
											CHANNELS 3 Zrotation Xrotation Yrotation
											JOINT RightHandMiddle3
											{
												OFFSET -3.56743 0.00000 0.00000
												CHANNELS 3 Zrotation Xrotation Yrotation
												End site
												{
													OFFSET 0.00000 0.00000 0.00000
												}
											}
										}
									}
									JOINT RightHandRing1
									{
										OFFSET -12.69180 0.00000 -3.06433
										CHANNELS 3 Zrotation Xrotation Yrotation
										JOINT RightHandRing2
										{
											OFFSET -5.62556 0.00000 0.00000
											CHANNELS 3 Zrotation Xrotation Yrotation
											JOINT RightHandRing3
											{
												OFFSET -3.56744 0.00000 0.00000
												CHANNELS 3 Zrotation Xrotation Yrotation
												End site
												{
													OFFSET 0.00000 0.00000 0.00000
												}
											}
										}
									}
									JOINT RightHandPinky1
									{
										OFFSET -11.11390 0.00000 -6.03719
										CHANNELS 3 Zrotation Xrotation Yrotation
										JOINT RightHandPinky2
										{
											OFFSET -4.52789 0.00000 0.00000
											CHANNELS 3 Zrotation Xrotation Yrotation
											JOINT RightHandPinky3
											{
												OFFSET -2.46976 0.00000 0.00000
												CHANNELS 3 Zrotation Xrotation Yrotation
												End site
												{
													OFFSET 0.00000 0.00000 0.00000
												}
											}
										}
									}
								}
							}
						}
					}
					JOINT LeftShoulder
					{
						OFFSET 0.01000 7.91373 5.19711
						CHANNELS 3 Zrotation Xrotation Yrotation
						JOINT LeftArm
						{
							OFFSET 18.41580 0.00000 0.00000
							CHANNELS 3 Zrotation Xrotation Yrotation
							JOINT LeftForeArm
							{
								OFFSET 29.11090 0.00000 0.00000
								CHANNELS 3 Zrotation Xrotation Yrotation
								JOINT LeftHand
								{
									OFFSET 24.65040 0.00000 0.00000
									CHANNELS 3 Zrotation Xrotation Yrotation
									JOINT LeftHandThumb1
									{
										OFFSET 5.35114 -0.85590 3.97906
										CHANNELS 3 Zrotation Xrotation Yrotation
										JOINT LeftHandThumb2
										{
											OFFSET 4.52789 0.00000 0.00000
											CHANNELS 3 Zrotation Xrotation Yrotation
											JOINT LeftHandThumb3
											{
												OFFSET 2.46977 0.00000 0.00000
												CHANNELS 3 Zrotation Xrotation Yrotation
												End site
												{
													OFFSET 0.00000 0.00000 0.00000
												}
											}
										}
									}
									JOINT LeftHandIndex1
									{
										OFFSET 14.26970 0.00000 2.88139
										CHANNELS 3 Zrotation Xrotation Yrotation
										JOINT LeftHandIndex2
										{
											OFFSET 5.48836 0.00000 0.00000
											CHANNELS 3 Zrotation Xrotation Yrotation
											JOINT LeftHandIndex3
											{
												OFFSET 3.01859 0.00000 0.00000
												CHANNELS 3 Zrotation Xrotation Yrotation
												End site
												{
													OFFSET 0.00000 0.00000 0.00000
												}
											}
										}
									}
									JOINT LeftHandMiddle1
									{
										OFFSET 14.26970 0.00000 -0.09147
										CHANNELS 3 Zrotation Xrotation Yrotation
										JOINT LeftHandMiddle2
										{
											OFFSET 6.17440 0.00000 0.00000
											CHANNELS 3 Zrotation Xrotation Yrotation
											JOINT LeftHandMiddle3
											{
												OFFSET 3.56744 0.00000 0.00000
												CHANNELS 3 Zrotation Xrotation Yrotation
												End site
												{
													OFFSET 0.00000 0.00000 0.00000
												}
											}
										}
									}
									JOINT LeftHandRing1
									{
										OFFSET 12.69180 0.00000 -3.06433
										CHANNELS 3 Zrotation Xrotation Yrotation
										JOINT LeftHandRing2
										{
											OFFSET 5.62556 0.00000 0.00000
											CHANNELS 3 Zrotation Xrotation Yrotation
											JOINT LeftHandRing3
											{
												OFFSET 3.56744 0.00000 0.00000
												CHANNELS 3 Zrotation Xrotation Yrotation
												End site
												{
													OFFSET 0.00000 0.00000 0.00000
												}
											}
										}
									}
									JOINT LeftHandPinky1
									{
										OFFSET 11.11390 0.00000 -6.03719
										CHANNELS 3 Zrotation Xrotation Yrotation
										JOINT LeftHandPinky2
										{
											OFFSET 4.52789 0.00000 0.00000
											CHANNELS 3 Zrotation Xrotation Yrotation
											JOINT LeftHandPinky3
											{
												OFFSET 2.46976 0.00000 0.00000
												CHANNELS 3 Zrotation Xrotation Yrotation
												End site
												{
													OFFSET 0.00000 0.00000 0.00000
												}
											}
										}
									}
								}
							}
						}
					}
					JOINT pCube4
					{
						OFFSET 0.00000 10.91090 1.10792
						CHANNELS 3 Zrotation Xrotation Yrotation
						End site
						{
							OFFSET 0.00000 0.00000 0.00000
						}
					}
				}
			}
		}
	}
	JOINT RightUpLeg
	{
		OFFSET -9.98441 0.00000 0.00000
		CHANNELS 3 Zrotation Xrotation Yrotation
		JOINT RightLeg
		{
			OFFSET 0.00000 -42.11790 0.00000
			CHANNELS 3 Zrotation Xrotation Yrotation
			JOINT RightFoot
			{
				OFFSET 0.00000 -45.00020 -0.00001
				CHANNELS 3 Zrotation Xrotation Yrotation
				JOINT RightForeFoot
				{
					OFFSET 0.00000 -3.74820 0.00000
					CHANNELS 3 Zrotation Xrotation Yrotation
					JOINT RightToeBase
					{
						OFFSET 0.00000 0.06325 14.43120
						CHANNELS 3 Zrotation Xrotation Yrotation
						End site
						{
							OFFSET 0.00000 0.00000 0.00000
						}
					}
				}
			}
		}
	}
	JOINT LeftUpLeg
	{
		OFFSET 9.98441 0.00000 0.00000
		CHANNELS 3 Zrotation Xrotation Yrotation
		JOINT LeftLeg
		{
			OFFSET 0.00000 -42.11800 0.00000
			CHANNELS 3 Zrotation Xrotation Yrotation
			JOINT LeftFoot
			{
				OFFSET 0.00000 -45.00070 0.00000
				CHANNELS 3 Zrotation Xrotation Yrotation
				JOINT LeftForeFoot
				{
					OFFSET 0.00000 -3.74824 0.00000
					CHANNELS 3 Zrotation Xrotation Yrotation
					JOINT LeftToeBase
					{
						OFFSET 0.00000 0.06325 14.43110
						CHANNELS 3 Zrotation Xrotation Yrotation
						End site
						{
							OFFSET 0.00000 0.00000 0.00000
						}
					}
				}
			}
		}
	}
}
MOTION
Frames: 4
Frame Time: 0.050000
-0.015346951485204222 0.024448027201513588 0.01834444979857595 -0.031464204219802276 -0.043206879161562975 -0.00921766858869308 -1.9064160617039267 1.2327888657026471 -1.0529141302123706 -0.9285968669980693 3.7495023862718666 0.3235475920912466 -1.2089993095225833 -1.4282065402525403 -1.0595182986367488 0.624065709742455 0.37765419585097704 -0.7787229305221575 0.6289053427481492 11.272269279834445 -2.0979465075773653 0.39223666722387734 -1.00996719219781 -6.105157636205006 1.1576258973927696 -16.46042782303209 -0.5865136229385911 -3.0143795193092857 1.2475314437031024 -15.342739994898007 73.22394425749472 19.50095149663448 0.8631044291186641 1.3558879331014841 5.4891589055122845 44.85032470617477 21.320623027991505 -0.06529181117634787 -4.336859050449569 4.521228265575084 -0.14724650040265597 -1.5924810425760436 -0.011699256387254664 0.043561040367918344 -56.20578142637395 0.02098576206346543 -0.04176426476241142 -56.27223006374682 -38.8151519811417 0.04811258305242808 -0.04908712869027978 -0.010495542948513847 -0.006456195836707698 0.03559932923847749 -0.014094164061191954 0.02375080571152109 0.026177945774703726 -36.67895558258143 0.03620852853533072 0.04463893009509944 0.000950401103853635 0.011535208721212277 -0.013389040436304123 0.004938885589709915 0.02915935967294423 -0.0007659406334197367 -19.784161484015474 -0.03116557015055202 -0.003813533900516615 0.038087736267963176 -0.024591601322302065 0.04508162721549586 -0.012133810108923795 -0.004302734577893287 -0.049443978901974876 24.025146345258555 0.005306458348880824 -0.003023383263638693 28.847671303567413 0.04897034560881564 -0.0251480462583434 28.89374459860552 0.016652050023621526 -0.01579659215504328 3.0402881862712623 0.9742214355689964 12.981751801412257 -69.37001676469835 28.590461773085753 -5.158994520811282 4.188047958424878 -7.933909515933554 -49.06753515272381 -12.008529424436015 2.446645132018934 -0.12353107273697535 -0.5205666658011363 0.11179179113119711 -8.128979639200361 0.03610615277381187 -0.01099597627433137 44.61681470403656 0.03448925110622434 0.02248161830856265 44.56134056503292 12.414187122408952 0.029266536106318134 0.006122121678583676 -0.01351480798114858 0.018681628144397083 0.013019730239899474 -0.02670253649100088 -0.03317801232996599 -0.04771697807418883 11.14020642616206 0.03253439537342224 0.02533697558016925 0.04803306227188785 0.02496973778446271 -0.04004794912175573 0.02020891949448289 0.048863945011464134 0.0026322497191986413 4.803051653802926 0.04326206102872041 0.008351550124115464 -0.0006022431682032767 -0.03397463516277354 -0.0014428210917053856 -0.004296828700620972 0.047670151211403604 0.03418961142170272 -5.562522595784084 -0.009368433344985792 0.025318287507842537 -6.717199736106569 -0.007713166725705813 -0.040369249667555326 -6.699463356150465 -0.03411324759051031 -0.03830733249665154 0.01872998888885171 0.027140959522118303 -0.02807386676848735 8.029128799634211 3.4884146299721612 -19.240064509726672 -0.01424486867077533 10.391874571345804 0.04732825024883268 -5.655010066555643 -15.695616780907217 3.2181613159382985 -0.023133749368271287 -0.04052130763885688 0.03811374285765496 0.016643331826474185 4.660167153838742 -0.0026221159243966295 12.444490194422267 -8.26353350120037 6.872673646174736 -0.017852687495207954 46.40193959186647 -0.015909998478043818 -4.2783501478562105 -14.765436689573042 -3.8464432185811854 0.04463882128153855 0.021288857679143035 0.04496792550977511 -0.02938661622320223 -10.775033846967979 -0.00978930298118056 
0.028968886853447614 -0.036722715716575254 -0.011905381546021096 -0.03385205770540504 0.003698568436297429 -0.0077095276642713375 -2.003155643980532 1.203592162768936 -1.0061525213991813 -0.935044856908677 3.7205346301427196 0.37882058537446295 -1.1420631102121066 -1.4752032933691195 -1.0080467490761071 0.5258980381150209 0.36302880361461265 -0.7683447074515966 0.43370431074829574 11.229969236872904 -1.7934711798464256 0.30911134636938126 -1.0558994716708663 -5.353343388238358 1.042576131287539 -16.583323235336216 -0.5224297993762853 -2.961469394868935 1.2778800796916991 -15.234896005897513 73.39619211344149 19.25180367617699 0.605449466811512 1.7389950855051484 5.74261446745506 44.641038100376775 21.6220918065222 -0.07998504552196398 -4.243808298678667 4.540557848246068 -0.16119750652405632 -1.5978413207291704 0.04603253649611632 -0.010132164609237828 -56.267658777797294 -0.03646163088641814 -0.03497228208325558 -56.216342825969505 -38.810721214716615 0.028578212036043462 0.008478767206614963 -0.015325806786366634 -0.005974639352357829 0.00833383063144545 -0.015600580283452611 -0.03736596712667166 0.006652045045508752 -36.699712859670115 0.004439455833680903 0.031162635489026928 0.0028733274377178313 0.0212024674537614 -0.049396691094414406 -0.03797842129306683 -0.02746011940040155 -0.030138066574661258 -19.737515451662457 0.044684720412392825 -0.01603434302854715 0.021444043704955597 -0.005676788289797516 -0.005338953620474285 0.03712909551216036 -0.0386322798770542 -0.04283258599154459 24.057002513833236 0.014545106653440552 0.007659475298478335 28.81924051790617 0.03512082878233193 -0.0019996208381266255 28.88339929871768 -0.018414236944417944 0.034381552124554085 3.24943201983601 1.0175903775366166 12.966631128078134 -69.27215101051347 28.624974865529072 -5.470330724648577 3.2637777335740736 -7.462559389636652 -49.07021945418995 -12.458914681315381 2.41827185541819 -0.19095134498749303 -0.4258393777373335 0.07457916536184778 -8.157646907377387 -0.04043026940184704 0.04384147421524062 44.53368688501019 0.042348131719021874 -0.012724952996465762 44.580791164436256 12.497390022222513 0.01733880658528655 -0.015248312244311748 0.003239466808357609 -0.048476588150877485 0.012041323639814448 0.0437875855072896 -0.007708753825556972 0.0013253991032650618 11.152339388819687 -0.010053092881947612 -0.030041157968463166 -0.04646075959879484 0.021325278737921078 -0.035874962109259105 -0.00315840174797371 0.04212476820720444 -0.03927951253659101 4.7623357661588726 0.007861144877561297 -0.03485903297738342 0.037532766474857995 0.004168570960526577 0.03475831681027467 -0.014918235350586754 -0.02309170777714273 -0.03452354499206815 -5.630435119422535 0.03198190503186491 -0.04887737821326644 -6.761495053822033 0.03459300696871804 0.010392096128864093 -6.751816256320031 -0.009040091798249772 -0.04151104389836059 0.010325232135272491 0.024163244095519495 -0.0186234245592107 8.003089822599025 3.490120761230504 -19.256717527818893 -0.019388336590868062 10.370998463778847 -0.02159293019952341 -5.650092853635273 -15.668889950749952 3.171829376927658 -0.027355239404348936 -0.003954673460413723 0.035506457064975634 0.0433670231611375 4.673612065595491 0.03652362330071235 12.50786651858577 -8.268220132573314 6.84467797350561 -0.026098271712496898 46.39812409268984 0.04689837435883053 -4.303613325492531 -14.714305222840126 -3.82027402863787 -0.00590526012869562 0.012779842869191314 0.02650362210646534 -0.02135808064968261 -10.71314217812016 0.041894487603442915 
0.01153197043146041 -0.010645042887341473 0.0031671523646270277 -0.023387254365729238 -0.03475121864441412 -0.03704950148667937 -1.9602733424990175 1.4496580645174124 -0.9842376650380537 -0.9011136099596546 3.6662762169173777 0.3715055568666078 -1.1094593103420283 -1.4533916343921975 -0.9985960405595827 0.36484865853128834 0.32800380601332046 -0.8049913705446062 0.3431655555101869 11.081319321905163 -1.5388972883395062 0.334229761059851 -1.052074322593587 -4.855485495827048 0.9678055658918383 -16.67289706731501 -0.40176299940276444 -2.838634455351965 1.2690555885326265 -15.124710065861573 73.40696068435459 18.83121654382265 0.7502546226825938 1.8352432377785752 5.903511702842807 44.84320723429565 21.655855075087437 -0.08195169189538581 -4.1313556590204294 4.524889528034206 -0.13167786520140753 -1.5664938032326388 -0.012284114937063356 0.043419859868359306 -56.19697141532942 -0.03915088536841266 -0.008329566671504572 -56.24348387478532 -38.81030770171811 0.03346619372949542 -0.0311723496715208 0.02393435694877797 -0.024499927864247435 0.03527310911547194 -0.0466983256292224 -0.011366731079304556 0.004527703842529875 -36.72287787992536 0.04302392248445588 0.007927904851097931 -0.04105762930527617 -0.01888808488816005 0.0075004764640884845 -0.02399818114797784 -0.00646445429986175 0.006582938375209809 -19.759640198459284 0.015289275143203749 -0.002897615988436872 -0.03915036950794507 -0.01676607597011683 0.03391459839039524 0.029051029297716347 -0.02895870240905635 -0.006194550367234434 24.054655267565384 -0.022112983578178355 -0.020770494027991575 28.847761838453632 -0.0013474673039879964 0.02781205675786105 28.843799976150933 -0.04965067990523705 0.022928347692291313 3.250321587981392 1.0040239345781048 12.955133152032285 -69.23332503645423 28.35809553134807 -5.93362322860161 3.0650369633646966 -6.988052019580126 -49.444918327935724 -12.733579217686023 2.3976749190148805 -0.16928848239169028 -0.49140299171650337 0.06768458973962929 -8.121310731361465 -0.0330865902600148 -0.010649527816850567 44.57599018784074 -0.03534985094100042 -0.014300215754200828 44.609007516147074 12.471627770383233 0.03860655688210708 -0.040699611324688044 0.03651468450771188 -0.010273247372235188 0.04495955572839849 0.013562122332479495 -0.0248475885111549 0.04634394220035288 11.095321428412374 -0.0019395495241831373 -0.044392552713136725 -0.011383675345762468 -0.005183303761860844 0.003933679438990158 -0.019471460242039693 -0.021657721280771026 0.007562321574008946 4.734871590851012 0.009152813699940098 -0.01897328054907899 -0.04869856429602969 -0.0463462097845583 0.03295541644104994 0.029561793045065562 0.002037857484845753 -0.04042525440572824 -5.565938252558967 -0.023495614156693247 0.021708399099290843 -6.710495245923203 -0.003836047325235077 0.04186624450492499 -6.71401047886926 -0.03130247355127969 0.04064414759242969 0.04976279015052741 0.02818729897338116 0.022429956937338538 8.06835278212811 3.5203061590097837 -19.235314697431004 0.0043150315318643455 10.411138414886642 -0.00724989465336124 -5.619507465948839 -15.706050034032415 3.1720783495689915 0.04422504865304063 -0.014518082702559726 0.037419149928747904 0.04865826803952178 4.673186734037583 -0.039551252500918746 12.478887297710713 -8.233144073730957 6.877113102425665 0.03366581273211307 46.424765688560875 0.020377417447637592 -4.35513198279224 -14.721142092843465 -3.785565973685197 -0.004506385779625281 0.006304568946762378 -0.04009365336291217 -0.007175006632341098 -10.718283023288754 -0.00304577014443625 
-0.004636175811840947 -0.034319983307594615 0.01090582082371594 0.03450413249730664 -0.03442874966794612 -0.011959727073224069 -1.9239995630844262 1.6928623520031936 -0.9964262951050756 -0.9255341932391636 3.7073672514544547 0.3566142143001319 -1.1295743460193732 -1.3256366204032342 -0.8570436097342848 0.29236392569214686 0.31038451450946797 -0.7787027743169299 0.2818565210206213 10.970862681291141 -1.342799580693036 0.3548831037258113 -1.107097044863127 -4.531378222047708 0.8782042513865178 -16.658521868855157 -0.4230759834225821 -2.636768608310765 1.2713459167410734 -14.93530526410845 73.33206530759905 18.0772739498507 1.0325757538507185 1.653651412501756 6.134779801005284 45.42429818698804 21.67627950242966 -0.09344460100741986 -4.0978968100538795 4.569825578739241 -0.08747292464420346 -1.5537760856961595 0.01997666098740885 0.003757372092179792 -56.2567047096213 0.03993563653370059 0.012609220583435424 -56.26874474685127 -38.76516512232698 0.0033831185728902045 -0.04978533060181726 -0.0007616100279342803 -0.02011086228237189 0.027078738597839356 -0.003834886997902329 0.04011826757621882 -0.012312329244579395 -36.700062612083784 0.0413542684894997 0.04677315445785574 -0.04184061698126916 0.024417910256886093 0.004750269270371972 0.004368433237709883 -0.00018336513415308432 0.041940423566877646 -19.72262466075474 0.01694891782223316 0.017569434756419214 -0.025177837659034568 0.01412782783936945 -0.034045832611885755 -0.015917414131364847 0.01654246301077988 0.004369528457999862 24.00510168136053 -0.04130177574598568 -0.03927269062210551 28.87901724631762 -0.015302990433358327 -0.010329003228083566 28.88665315620306 0.008593611239243291 0.031091360277096185 3.14259544753018 0.9612592480716927 12.989314856486235 -69.07676037485699 27.92660357432444 -6.4262031986019394 3.1875579037145165 -6.596476824794639 -50.13165514424865 -12.93545927455694 2.3621221873812366 -0.26648512747093434 -0.43409986022199576 0.08582060049690704 -8.113406230098061 -0.029125204921087063 0.0008312704307777978 44.55487126796075 -0.040139783860759726 0.029963463276995173 44.55786360852621 12.417138999063956 -0.02253621753373348 -0.022178963433980504 0.04018995631148021 -0.02629501297090889 -0.03730549518948205 0.04831290917542645 0.029483352125739458 0.028965054671773436 11.132216200195112 0.027235156601016185 -0.01096179651572921 -0.04721710360378153 -0.02674189926333627 -0.013397956276370757 0.010875622266442501 -0.03164177077490778 -0.04742851030521498 4.7997852627791255 -0.009743762500259424 -0.004168667040190124 -0.02244672917236753 0.030088669372712363 -0.00030973676816517065 0.023031577931777052 0.04371952429000932 -0.010076711659769212 -5.633840336119069 -0.027736845689955963 -0.018512099111344098 -6.767516671760765 -0.01285599808849848 -0.007545118052980713 -6.764015804558497 0.018438156113800508 0.035017140839762005 0.01903258687986885 0.03990218605491682 0.030175132906492652 8.031919782474883 3.4548732565437508 -19.175881730615824 0.019214884445356153 10.388834235339218 -0.03451666251036484 -5.657339900395111 -15.667303862838427 3.2168846730566782 -0.04643212163259984 -0.014181503310851546 0.007208414905970849 0.02261206436495093 4.721304850550585 0.011948477927079204 12.461522555297949 -8.220073550722324 6.854713368767404 -0.03955615914629063 46.33735532662985 0.05057152536361208 -4.356722433685387 -14.754432279161103 -3.862035712292351 0.0036112519097128426 -0.023528123856746578 -0.03925246568502151 -0.032186865566980326 -10.7117597929141 -0.017451089074303757 
